<?xml version="1.0" encoding="utf-8"?>
<!-- Generator: Adobe Illustrator 24.1.3, SVG Export Plug-In . SVG Version: 6.00 Build 0)  -->
<svg version="1.1" id="Layer_1" xmlns="http://www.w3.org/2000/svg" xmlns:xlink="http://www.w3.org/1999/xlink" x="0px" y="0px"
	 viewBox="0 0 500 500" style="enable-background:new 0 0 500 500;" xml:space="preserve">
<style type="text/css">
	.st0{fill:#EEEEEE;}
	.st1{fill:#0F044C;}
	.st2{display:none;opacity:0.29;}
	.st3{display:inline;fill:#F15A24;}
	.st4{fill:#141E61;}
	.st5{opacity:0.05;}
	.st6{fill:none;stroke:#141E61;stroke-width:0.6718;stroke-miterlimit:10;}
	.st7{clip-path:url(#SVGID_2_);}
	.st8{opacity:0.1;fill:url(#SVGID_3_);}
	.st9{opacity:0.15;fill:url(#SVGID_4_);}
	.st10{opacity:0.1;fill:url(#SVGID_5_);}
	.st11{fill:#4FDFFF;}
	.st12{fill:none;stroke:#4FDFFF;stroke-width:1.5501;stroke-miterlimit:10;}
	.st13{fill:none;stroke:#4FDFFF;stroke-width:1.7923;stroke-miterlimit:10;}
	.st14{fill:none;stroke:#4FDFFF;stroke-width:2.5835;stroke-miterlimit:10;}
	.st15{fill:none;stroke:#4FDFFF;stroke-width:1.7761;stroke-miterlimit:10;}
	.st16{fill:url(#SVGID_6_);}
	.st17{opacity:0;fill:url(#SVGID_7_);}
	.st18{fill:url(#SVGID_8_);}
	.st19{opacity:0;fill:url(#SVGID_9_);}
	.st20{fill:url(#SVGID_10_);}
	.st21{opacity:0;fill:url(#SVGID_11_);}
	.st22{fill:url(#SVGID_12_);}
	.st23{opacity:0;fill:url(#SVGID_13_);}
	.st24{fill:url(#SVGID_14_);}
	.st25{opacity:0;fill:url(#SVGID_15_);}
	.st26{fill:url(#SVGID_16_);}
	.st27{opacity:0;fill:url(#SVGID_17_);}
	.st28{fill:url(#SVGID_18_);}
	.st29{opacity:0;fill:url(#SVGID_19_);}
	.st30{fill:url(#SVGID_20_);}
	.st31{opacity:0;fill:url(#SVGID_21_);}
	.st32{fill:url(#SVGID_22_);}
	.st33{opacity:0;fill:url(#SVGID_23_);}
	.st34{fill:url(#SVGID_24_);}
	.st35{opacity:0;fill:url(#SVGID_25_);}
	.st36{fill:url(#SVGID_26_);}
	.st37{opacity:0.6;fill:url(#SVGID_27_);}
	.st38{opacity:0.7;fill:url(#SVGID_28_);}
	.st39{fill:url(#SVGID_29_);}
	.st40{opacity:0.6;fill:url(#SVGID_30_);}
	.st41{opacity:0.7;fill:url(#SVGID_31_);}
	.st42{fill:url(#SVGID_32_);}
	.st43{opacity:0.6;fill:url(#SVGID_33_);}
	.st44{opacity:0.7;fill:url(#SVGID_34_);}
	.st45{fill:url(#SVGID_35_);}
	.st46{opacity:0;fill:url(#SVGID_36_);}
	.st47{fill:url(#SVGID_37_);}
	.st48{opacity:0;fill:url(#SVGID_38_);}
	.st49{clip-path:url(#SVGID_40_);}
	.st50{fill:url(#SVGID_41_);}
	.st51{fill:url(#SVGID_42_);}
	.st52{fill:url(#SVGID_43_);}
	.st53{fill:url(#SVGID_44_);}
	.st54{fill:url(#SVGID_45_);}
	.st55{fill:url(#SVGID_46_);}
	.st56{fill:url(#SVGID_47_);}
	.st57{fill:url(#SVGID_48_);}
	.st58{fill:url(#SVGID_49_);}
	.st59{fill:url(#SVGID_50_);}
	.st60{fill:url(#SVGID_51_);}
	.st61{fill:url(#SVGID_52_);}
	.st62{fill:url(#SVGID_53_);}
	.st63{fill:url(#SVGID_54_);}
	.st64{fill:url(#SVGID_55_);}
	.st65{fill:url(#SVGID_56_);}
	.st66{fill:url(#SVGID_57_);}
	.st67{fill:url(#SVGID_58_);}
	.st68{fill:url(#SVGID_59_);}
	.st69{fill:url(#SVGID_60_);}
	.st70{fill:url(#SVGID_61_);}
	.st71{fill:url(#SVGID_62_);}
	.st72{fill:url(#SVGID_63_);}
	.st73{fill:url(#SVGID_64_);}
	.st74{fill:url(#SVGID_65_);}
	.st75{fill:url(#SVGID_66_);}
	.st76{fill:url(#SVGID_67_);}
	.st77{fill:url(#SVGID_68_);}
	.st78{fill:url(#SVGID_69_);}
	.st79{fill:url(#SVGID_70_);}
	.st80{fill:url(#SVGID_71_);}
	.st81{fill:url(#SVGID_72_);}
	.st82{fill:url(#SVGID_73_);}
	.st83{fill:url(#SVGID_74_);}
	.st84{fill:url(#SVGID_75_);}
	.st85{fill:url(#SVGID_76_);}
	.st86{fill:url(#SVGID_77_);}
	.st87{fill:url(#SVGID_78_);}
	.st88{fill:url(#SVGID_79_);}
	.st89{fill:url(#SVGID_80_);}
	.st90{fill:url(#SVGID_81_);}
	.st91{fill:url(#SVGID_82_);}
	.st92{fill:url(#SVGID_83_);}
	.st93{clip-path:url(#SVGID_85_);}
	.st94{fill:url(#SVGID_86_);}
	.st95{fill:url(#SVGID_87_);}
	.st96{fill:url(#SVGID_88_);}
	.st97{fill:url(#SVGID_89_);}
	.st98{fill:url(#SVGID_90_);}
	.st99{fill:url(#SVGID_91_);}
	.st100{fill:url(#SVGID_92_);}
	.st101{fill:url(#SVGID_93_);}
	.st102{fill:url(#SVGID_94_);}
	.st103{fill:url(#SVGID_95_);}
	.st104{fill:url(#SVGID_96_);}
	.st105{fill:url(#SVGID_97_);}
	.st106{fill:url(#SVGID_98_);}
	.st107{fill:url(#SVGID_99_);}
	.st108{fill:url(#SVGID_100_);}
	.st109{fill:url(#SVGID_101_);}
	.st110{fill:url(#SVGID_102_);}
	.st111{fill:url(#SVGID_103_);}
	.st112{fill:url(#SVGID_104_);}
	.st113{fill:url(#SVGID_105_);}
	.st114{fill:url(#SVGID_106_);}
	.st115{fill:url(#SVGID_107_);}
	.st116{fill:url(#SVGID_108_);}
	.st117{fill:url(#SVGID_109_);}
	.st118{fill:url(#SVGID_110_);}
	.st119{fill:url(#SVGID_111_);}
	.st120{fill:url(#SVGID_112_);}
	.st121{fill:url(#SVGID_113_);}
	.st122{fill:url(#SVGID_114_);}
	.st123{fill:url(#SVGID_115_);}
	.st124{fill:url(#SVGID_116_);}
	.st125{fill:url(#SVGID_117_);}
	.st126{fill:url(#SVGID_118_);}
	.st127{fill:url(#SVGID_119_);}
	.st128{fill:url(#SVGID_120_);}
	.st129{fill:url(#SVGID_121_);}
	.st130{fill:url(#SVGID_122_);}
	.st131{fill:url(#SVGID_123_);}
	.st132{fill:url(#SVGID_124_);}
	.st133{fill:url(#SVGID_125_);}
	.st134{fill:url(#SVGID_126_);}
	.st135{fill:url(#SVGID_127_);}
	.st136{fill:#FFFFFF;}
	.st137{fill:none;stroke:#141E61;stroke-width:1.4606;stroke-miterlimit:10;}
	.st138{fill:none;stroke:#141E61;stroke-width:0.5;stroke-miterlimit:10;}
	.st139{fill:url(#SVGID_132_);}
	.st140{fill:none;stroke:#FFFFFF;stroke-width:0.5;stroke-miterlimit:10;}
	.st141{fill:none;}
	.st142{opacity:0.2;}
	.st143{fill:#93867E;}
	.st144{opacity:0.45;fill:#93867E;}
	.st145{fill:#CBC7C3;}
	.st146{opacity:0.65;fill:#3399CC;}
	.st147{fill:#AFA9A3;}
	.st148{opacity:0.55;fill:#CBC7C3;}
	.st149{fill:#C4C1BE;}
	.st150{opacity:0.53;fill:#B2AEAA;}
	.st151{fill:#9C938C;}
	.st152{opacity:0.35;fill:#968D85;}
	.st153{fill:#524843;}
	.st154{opacity:0.45;}
	.st155{fill:#999999;}
	.st156{fill:#7A726E;}
	.st157{fill:#D7D4D1;}
	.st158{fill:#BEB9B3;}
	.st159{opacity:0.75;fill:#3399CC;}
	.st160{opacity:0.45;fill:#BCBCB0;}
	.st161{opacity:0.35;fill:#AAAAA6;}
	.st162{fill:none;stroke:#FF0000;stroke-width:1.0495;stroke-linecap:round;stroke-linejoin:round;stroke-miterlimit:10;}
	.st163{fill:none;stroke:#FF0000;stroke-width:0.6013;stroke-miterlimit:10;}
	.st164{fill:none;stroke:#EEEEEE;stroke-miterlimit:10;}
	.st165{fill:#FFFFFF;stroke:#141E61;stroke-width:1.0914;stroke-miterlimit:10;}
	.st166{fill:none;stroke:#141E61;stroke-width:1.4249;stroke-miterlimit:10;}
	.st167{fill:#FFFFFF;stroke:#141E61;stroke-width:0.93;stroke-miterlimit:10;}
	.st168{fill:none;stroke:#EEEEEE;stroke-width:1.9099;stroke-miterlimit:10;}
	.st169{fill:#EEEEEE;stroke:#0F044C;stroke-width:0.7826;stroke-miterlimit:10;}
	.st170{fill:none;stroke:#ED1C24;stroke-width:0.9063;stroke-miterlimit:10;}
	.st171{clip-path:url(#SVGID_146_);fill:none;stroke:#ED1C24;stroke-width:0.9063;stroke-miterlimit:10;}
	.st172{fill:url(#SVGID_147_);}
	.st173{fill:none;stroke:#00FF00;stroke-width:0.9063;stroke-miterlimit:10;}
	.st174{fill:#EEEEEE;stroke:#000000;stroke-width:0.3;stroke-miterlimit:10;}
	.st175{fill:#FF0013;}
	.st176{opacity:0.9;fill:#141E61;}
	.st177{fill:none;stroke:#ED1C24;stroke-width:2.0518;stroke-miterlimit:10;}
	.st178{clip-path:url(#SVGID_151_);fill:none;stroke:#ED1C24;stroke-width:2.0518;stroke-miterlimit:10;}
	.st179{fill:url(#SVGID_152_);}
	.st180{fill:#EEEEEE;stroke:#000000;stroke-width:0.6792;stroke-miterlimit:10;}
	.st181{fill:none;stroke:#FF0013;stroke-width:2.0518;stroke-miterlimit:10;}
	.st182{fill:#11FF00;}
	.st183{fill:none;stroke:#FFFFFF;stroke-miterlimit:10;}
</style>
<g>
	<g>
		<g>
			<path class="st4" d="M101.16,213.8c0-2.52,0-4.72,0-7.28c14.14,0,22.68,0,37.08,0c0,2.28,0,4.6,0,7.28
				C124.22,213.8,115.7,213.8,101.16,213.8z"/>
			<path class="st4" d="M398.75,206.45c0,2.45,0,4.64,0,7.28c-14.02,0-52.49,0-66.89,0c0-2.39,0-4.72,0-7.28
				C346.16,206.45,384.51,206.45,398.75,206.45z"/>
			<path class="st4" d="M71.78,213.92c0,6.09,0,11.21,0,16.6c-2.76,0-5.07,0-7.95,0c0-6.66-0.3-13.2,0.21-19.67
				c0.13-1.65,2.74-4.29,4.37-4.42c6.48-0.51,13.02-0.21,19.79-0.21c0,2.69,0,4.88,0,7.7C83.07,213.92,77.83,213.92,71.78,213.92z"
				/>
			<path class="st4" d="M428.11,230.45c0-5.45,0-10.57,0-16.12c-5.54,0-10.65,0-16.16,0c0-2.76,0-5.07,0-8.04
				c6.68,0,13.53-0.26,20.34,0.21c1.4,0.1,3.6,2.87,3.72,4.52c0.44,6.33,0.18,12.71,0.18,19.42
				C433.53,230.45,431.21,230.45,428.11,230.45z"/>
			<path class="st4" d="M165.43,297.84c0,2.32,0,4.48,0,6.88c-14.31,0-44.53,0-58.76,0c0-2.35,0-4.37,0-6.88
				C120.71,297.84,151.05,297.84,165.43,297.84z"/>
			<path class="st4" d="M358.98,304.57c0-2.32,0-4.47,0-6.88c14.3,0,28.25,0,42.49,0c0,2.34,0,4.36,0,6.88
				C387.44,304.57,373.37,304.57,358.98,304.57z"/>
			<path class="st4" d="M88.22,304.97c-7.03,0-13.73,0.22-20.4-0.18c-1.4-0.09-3.7-2.43-3.79-3.84c-0.41-6.5-0.18-13.03-0.18-19.87
				c2.77,0,5.08,0,7.91,0c0,5.34,0,10.45,0,16.27c5.74,0,10.99,0,16.46,0C88.22,300.06,88.22,302.08,88.22,304.97z"/>
			<path class="st4" d="M411.77,305.03c0-2.71,0-4.72,0-7.48c5.25,0,10.49,0,16.26,0c0-5.81,0-10.9,0-16.39c2.85,0,5.16,0,8.11,0
				c0,6.65,0.26,13.34-0.21,19.99c-0.1,1.39-2.82,3.59-4.45,3.7C425.13,305.29,418.74,305.03,411.77,305.03z"/>
			<path class="st4" d="M71.55,269.12c-2.65,0-4.86,0-7.41,0c0-8.84,0-17.53,0-26.48c2.52,0,4.83,0,7.41,0
				C71.55,251.48,71.55,260.03,71.55,269.12z"/>
			<g>
				<path class="st4" d="M233.6,317.11c-50.22-0.14-90.44-40.76-90.28-91.19c0.15-49.52,41.02-90.05,90.65-89.91
					c50.34,0.14,90.6,40.66,90.44,91.01C324.25,277.04,283.72,317.24,233.6,317.11z M313.92,226.52
					c-0.05-44.33-35.9-79.95-80.33-79.84c-44.16,0.11-79.67,35.8-79.59,79.99c0.08,44.22,35.54,79.78,79.73,79.95
					C277.88,306.79,313.97,270.75,313.92,226.52z"/>
				<path class="st4" d="M365.1,332.51c-0.69,11.99-4.83,18.95-13.18,22.85c-8.36,3.91-16.82,3.15-23.53-3.13
					c-12.86-12.05-25.14-24.71-37.61-37.18c-2.5-2.5-2.66-5.4,0.05-7.79c2.72-2.4,5.47-1.56,7.87,0.83
					c11.44,11.39,22.82,22.85,34.38,34.12c1.92,1.87,4.44,3.55,6.99,4.28c5.02,1.43,10.12-1.09,12.64-5.49
					c2.55-4.44,1.96-10.12-1.94-14.12c-8.51-8.73-17.2-17.29-25.81-25.91c-3.26-3.26-6.55-6.5-9.77-9.8
					c-2.4-2.46-2.94-5.29-0.42-7.87c2.55-2.61,5.38-2.07,7.83,0.37c12.24,12.23,24.73,24.22,36.49,36.9
					C362.53,324.27,363.86,329.94,365.1,332.51z"/>
				<path class="st4" d="M266.22,200.13c-0.07,12.38-5.05,24.2-14.24,34.41c-3.33,3.7-2.73,6.53,1.89,8.27
					c3.66,1.38,7.52,2.41,11.37,3.09c9.11,1.6,14.82,6.55,16.73,15.74c0.67,3.22,1.67,6.36,2.43,9.56c0.82,3.44-0.5,5.99-3.88,6.88
					c-3.27,0.86-5.4-1.03-6.3-4.06c-0.99-3.3-1.74-6.68-2.49-10.05c-0.96-4.33-3.36-6.67-7.93-7.52c-5.13-0.96-10.3-2.34-15.08-4.39
					c-10.12-4.34-12.57-15.8-5.09-23.97c8.47-9.25,12.23-20.02,12.33-32.38c0.11-13-9.15-21.9-22.77-21.63
					c-13.12,0.27-21.73,9.71-21.32,22.58c0.39,12.22,4.32,22.67,12.57,31.8c7.59,8.4,4.48,20.06-6.11,23.89
					c-4.93,1.78-10.05,3.08-15.15,4.29c-3.58,0.84-5.9,2.62-6.75,6.27c-0.82,3.52-1.77,7.01-2.68,10.51
					c-0.85,3.27-2.81,5.52-6.33,4.72c-3.65-0.82-4.89-3.52-3.92-7.2c0.84-3.18,1.61-6.38,2.34-9.58
					c1.97-8.66,7.31-13.65,16.04-15.27c3.54-0.66,7.04-1.65,10.45-2.81c6.66-2.26,7.26-4.51,2.65-9.71
					c-7.09-7.98-11.54-17.22-12.96-27.76c-1.75-13.03-0.87-25.43,10.14-34.79c9.78-8.31,25.58-10.28,37.15-4.16
					C262.06,173.55,267.29,184.53,266.22,200.13z"/>
			</g>
		</g>
		<g>
			<path class="st4" d="M422.57,409.62c-0.07,7.08-2.32,9.51-9.06,9.64c-11.21,0.28-22.9,0.28-35.73,0c-3.3-0.03-5.83-0.94-7.35-2.6
				c-1.25-1.32-1.8-3.12-1.7-5.34c0.17-3.16,1.39-6.8,9.44-6.9c3.43-0.03,6.9-0.07,10.41-0.07c2.64,0,5.31,0,8.01,0.03h11.07
				l-0.03-11.14c0-6.21,0-12.14,0.03-18.04c0.03-4.44,1.32-9.78,7.25-9.99c2.08-0.1,3.71,0.52,4.96,1.7
				c1.77,1.7,2.71,4.58,2.71,8.33C422.64,384.71,422.67,397.2,422.57,409.62z"/>
		</g>
		<g>
			<path class="st4" d="M136.18,88.16c-0.07,5.83-4.2,7.15-7.63,7.22c-6.42,0.14-12.8,0.1-19.57,0.07H97.36v2.6
				c0,3.05,0,6.07,0.03,8.99c0.03,6.56,0.07,12.73-0.1,18.91c-0.1,3.23-1.32,5.93-3.33,7.39c-1.67,1.25-3.75,1.56-5.97,0.94
				c-3.78-1.08-5.55-3.5-5.55-7.6l-0.03-6.56c0-10.51,0-21.02,0.03-31.5c0-5.07,2.39-7.67,7.01-7.81
				c6.35-0.17,12.94-0.28,19.95-0.28c6.14,0,12.59,0.07,19.43,0.21C133.65,80.84,136.25,83.47,136.18,88.16z"/>
		</g>
		<g>
			<path class="st4" d="M136.32,411.67c0.07,4.68-3.54,7.53-9.64,7.63c-13.39,0.21-24.56,0.21-35.11-0.03
				c-6.83-0.14-9.05-2.46-9.12-9.54c-0.1-11.07-0.1-22.55,0-35.18c0-3.4,0.97-9.12,7.08-9.33h0.31c1.91,0,3.5,0.59,4.75,1.8
				c1.7,1.6,2.71,4.3,2.74,7.56c0.14,6.07,0.1,12.14,0.07,18.49c0,2.84-0.03,5.72-0.03,8.71v2.6h11c6.21-0.03,12.14-0.03,18.11,0.03
				C130.11,404.45,136.25,405.42,136.32,411.67z"/>
		</g>
		<g>
			<path class="st4" d="M422.54,126.56c-0.03,2.5-0.9,4.68-2.43,6.14c-1.35,1.32-3.12,2.01-5.13,1.91c-4.34-0.1-7.18-3.43-7.29-8.47
				c-0.14-6.24-0.1-12.52-0.07-19.08c0-2.91,0.03-5.9,0.03-8.95v-2.6h-25.4c-2.12,0.03-4.06,0.07-6.04-0.1
				c-6.66-0.52-7.42-4.48-7.42-7.42c-0.03-4.51,2.39-7.04,6.76-7.18c13.46-0.35,26.92-0.35,40,0c5.72,0.17,6.97,4.37,6.97,7.84
				C422.64,100.72,422.71,113.66,422.54,126.56z"/>
		</g>
	</g>
</g>
</svg>
