<?xml version="1.0" encoding="utf-8"?>
<!-- Generator: Adobe Illustrator 24.1.3, SVG Export Plug-In . SVG Version: 6.00 Build 0)  -->
<svg version="1.1" id="Layer_1" xmlns="http://www.w3.org/2000/svg" xmlns:xlink="http://www.w3.org/1999/xlink" x="0px" y="0px"
	 viewBox="0 0 500 500" style="enable-background:new 0 0 500 500;" xml:space="preserve">
<style type="text/css">
	.st0{fill:#EEEEEE;}
	.st1{fill:#0F044C;}
	.st2{display:none;opacity:0.29;}
	.st3{display:inline;fill:#F15A24;}
	.st4{fill:#141E61;}
	.st5{opacity:0.05;}
	.st6{fill:none;stroke:#141E61;stroke-width:0.6718;stroke-miterlimit:10;}
	.st7{clip-path:url(#SVGID_2_);}
	.st8{opacity:0.1;fill:url(#SVGID_3_);}
	.st9{opacity:0.15;fill:url(#SVGID_4_);}
	.st10{opacity:0.1;fill:url(#SVGID_5_);}
	.st11{fill:#4FDFFF;}
	.st12{fill:none;stroke:#4FDFFF;stroke-width:1.5501;stroke-miterlimit:10;}
	.st13{fill:none;stroke:#4FDFFF;stroke-width:1.7923;stroke-miterlimit:10;}
	.st14{fill:none;stroke:#4FDFFF;stroke-width:2.5835;stroke-miterlimit:10;}
	.st15{fill:none;stroke:#4FDFFF;stroke-width:1.7761;stroke-miterlimit:10;}
	.st16{fill:url(#SVGID_6_);}
	.st17{opacity:0;fill:url(#SVGID_7_);}
	.st18{fill:url(#SVGID_8_);}
	.st19{opacity:0;fill:url(#SVGID_9_);}
	.st20{fill:url(#SVGID_10_);}
	.st21{opacity:0;fill:url(#SVGID_11_);}
	.st22{fill:url(#SVGID_12_);}
	.st23{opacity:0;fill:url(#SVGID_13_);}
	.st24{fill:url(#SVGID_14_);}
	.st25{opacity:0;fill:url(#SVGID_15_);}
	.st26{fill:url(#SVGID_16_);}
	.st27{opacity:0;fill:url(#SVGID_17_);}
	.st28{fill:url(#SVGID_18_);}
	.st29{opacity:0;fill:url(#SVGID_19_);}
	.st30{fill:url(#SVGID_20_);}
	.st31{opacity:0;fill:url(#SVGID_21_);}
	.st32{fill:url(#SVGID_22_);}
	.st33{opacity:0;fill:url(#SVGID_23_);}
	.st34{fill:url(#SVGID_24_);}
	.st35{opacity:0;fill:url(#SVGID_25_);}
	.st36{fill:url(#SVGID_26_);}
	.st37{opacity:0.6;fill:url(#SVGID_27_);}
	.st38{opacity:0.7;fill:url(#SVGID_28_);}
	.st39{fill:url(#SVGID_29_);}
	.st40{opacity:0.6;fill:url(#SVGID_30_);}
	.st41{opacity:0.7;fill:url(#SVGID_31_);}
	.st42{fill:url(#SVGID_32_);}
	.st43{opacity:0.6;fill:url(#SVGID_33_);}
	.st44{opacity:0.7;fill:url(#SVGID_34_);}
	.st45{fill:url(#SVGID_35_);}
	.st46{opacity:0;fill:url(#SVGID_36_);}
	.st47{fill:url(#SVGID_37_);}
	.st48{opacity:0;fill:url(#SVGID_38_);}
	.st49{clip-path:url(#SVGID_40_);}
	.st50{fill:url(#SVGID_41_);}
	.st51{fill:url(#SVGID_42_);}
	.st52{fill:url(#SVGID_43_);}
	.st53{fill:url(#SVGID_44_);}
	.st54{fill:url(#SVGID_45_);}
	.st55{fill:url(#SVGID_46_);}
	.st56{fill:url(#SVGID_47_);}
	.st57{fill:url(#SVGID_48_);}
	.st58{fill:url(#SVGID_49_);}
	.st59{fill:url(#SVGID_50_);}
	.st60{fill:url(#SVGID_51_);}
	.st61{fill:url(#SVGID_52_);}
	.st62{fill:url(#SVGID_53_);}
	.st63{fill:url(#SVGID_54_);}
	.st64{fill:url(#SVGID_55_);}
	.st65{fill:url(#SVGID_56_);}
	.st66{fill:url(#SVGID_57_);}
	.st67{fill:url(#SVGID_58_);}
	.st68{fill:url(#SVGID_59_);}
	.st69{fill:url(#SVGID_60_);}
	.st70{fill:url(#SVGID_61_);}
	.st71{fill:url(#SVGID_62_);}
	.st72{fill:url(#SVGID_63_);}
	.st73{fill:url(#SVGID_64_);}
	.st74{fill:url(#SVGID_65_);}
	.st75{fill:url(#SVGID_66_);}
	.st76{fill:url(#SVGID_67_);}
	.st77{fill:url(#SVGID_68_);}
	.st78{fill:url(#SVGID_69_);}
	.st79{fill:url(#SVGID_70_);}
	.st80{fill:url(#SVGID_71_);}
	.st81{fill:url(#SVGID_72_);}
	.st82{fill:url(#SVGID_73_);}
	.st83{fill:url(#SVGID_74_);}
	.st84{fill:url(#SVGID_75_);}
	.st85{fill:url(#SVGID_76_);}
	.st86{fill:url(#SVGID_77_);}
	.st87{fill:url(#SVGID_78_);}
	.st88{fill:url(#SVGID_79_);}
	.st89{fill:url(#SVGID_80_);}
	.st90{fill:url(#SVGID_81_);}
	.st91{fill:url(#SVGID_82_);}
	.st92{fill:url(#SVGID_83_);}
	.st93{clip-path:url(#SVGID_85_);}
	.st94{fill:url(#SVGID_86_);}
	.st95{fill:url(#SVGID_87_);}
	.st96{fill:url(#SVGID_88_);}
	.st97{fill:url(#SVGID_89_);}
	.st98{fill:url(#SVGID_90_);}
	.st99{fill:url(#SVGID_91_);}
	.st100{fill:url(#SVGID_92_);}
	.st101{fill:url(#SVGID_93_);}
	.st102{fill:url(#SVGID_94_);}
	.st103{fill:url(#SVGID_95_);}
	.st104{fill:url(#SVGID_96_);}
	.st105{fill:url(#SVGID_97_);}
	.st106{fill:url(#SVGID_98_);}
	.st107{fill:url(#SVGID_99_);}
	.st108{fill:url(#SVGID_100_);}
	.st109{fill:url(#SVGID_101_);}
	.st110{fill:url(#SVGID_102_);}
	.st111{fill:url(#SVGID_103_);}
	.st112{fill:url(#SVGID_104_);}
	.st113{fill:url(#SVGID_105_);}
	.st114{fill:url(#SVGID_106_);}
	.st115{fill:url(#SVGID_107_);}
	.st116{fill:url(#SVGID_108_);}
	.st117{fill:url(#SVGID_109_);}
	.st118{fill:url(#SVGID_110_);}
	.st119{fill:url(#SVGID_111_);}
	.st120{fill:url(#SVGID_112_);}
	.st121{fill:url(#SVGID_113_);}
	.st122{fill:url(#SVGID_114_);}
	.st123{fill:url(#SVGID_115_);}
	.st124{fill:url(#SVGID_116_);}
	.st125{fill:url(#SVGID_117_);}
	.st126{fill:url(#SVGID_118_);}
	.st127{fill:url(#SVGID_119_);}
	.st128{fill:url(#SVGID_120_);}
	.st129{fill:url(#SVGID_121_);}
	.st130{fill:url(#SVGID_122_);}
	.st131{fill:url(#SVGID_123_);}
	.st132{fill:url(#SVGID_124_);}
	.st133{fill:url(#SVGID_125_);}
	.st134{fill:url(#SVGID_126_);}
	.st135{fill:url(#SVGID_127_);}
	.st136{fill:#FFFFFF;}
	.st137{fill:none;stroke:#141E61;stroke-width:1.4606;stroke-miterlimit:10;}
	.st138{fill:none;stroke:#141E61;stroke-width:0.5;stroke-miterlimit:10;}
	.st139{fill:url(#SVGID_132_);}
	.st140{fill:none;stroke:#FFFFFF;stroke-width:0.5;stroke-miterlimit:10;}
	.st141{fill:none;}
	.st142{opacity:0.2;}
	.st143{fill:#93867E;}
	.st144{opacity:0.45;fill:#93867E;}
	.st145{fill:#CBC7C3;}
	.st146{opacity:0.65;fill:#3399CC;}
	.st147{fill:#AFA9A3;}
	.st148{opacity:0.55;fill:#CBC7C3;}
	.st149{fill:#C4C1BE;}
	.st150{opacity:0.53;fill:#B2AEAA;}
	.st151{fill:#9C938C;}
	.st152{opacity:0.35;fill:#968D85;}
	.st153{fill:#524843;}
	.st154{opacity:0.45;}
	.st155{fill:#999999;}
	.st156{fill:#7A726E;}
	.st157{fill:#D7D4D1;}
	.st158{fill:#BEB9B3;}
	.st159{opacity:0.75;fill:#3399CC;}
	.st160{opacity:0.45;fill:#BCBCB0;}
	.st161{opacity:0.35;fill:#AAAAA6;}
	.st162{fill:none;stroke:#FF0000;stroke-width:1.0495;stroke-linecap:round;stroke-linejoin:round;stroke-miterlimit:10;}
	.st163{fill:none;stroke:#FF0000;stroke-width:0.6013;stroke-miterlimit:10;}
	.st164{fill:none;stroke:#EEEEEE;stroke-miterlimit:10;}
	.st165{fill:#FFFFFF;stroke:#141E61;stroke-width:1.0914;stroke-miterlimit:10;}
	.st166{fill:none;stroke:#141E61;stroke-width:1.4249;stroke-miterlimit:10;}
	.st167{fill:#FFFFFF;stroke:#141E61;stroke-width:0.93;stroke-miterlimit:10;}
	.st168{fill:none;stroke:#EEEEEE;stroke-width:1.9099;stroke-miterlimit:10;}
	.st169{fill:#EEEEEE;stroke:#0F044C;stroke-width:0.7826;stroke-miterlimit:10;}
	.st170{fill:none;stroke:#ED1C24;stroke-width:0.9063;stroke-miterlimit:10;}
	.st171{clip-path:url(#SVGID_146_);fill:none;stroke:#ED1C24;stroke-width:0.9063;stroke-miterlimit:10;}
	.st172{fill:url(#SVGID_147_);}
	.st173{fill:none;stroke:#00FF00;stroke-width:0.9063;stroke-miterlimit:10;}
	.st174{fill:#EEEEEE;stroke:#000000;stroke-width:0.3;stroke-miterlimit:10;}
	.st175{fill:#FF0013;}
	.st176{opacity:0.9;fill:#141E61;}
	.st177{fill:none;stroke:#ED1C24;stroke-width:2.0518;stroke-miterlimit:10;}
	.st178{clip-path:url(#SVGID_151_);fill:none;stroke:#ED1C24;stroke-width:2.0518;stroke-miterlimit:10;}
	.st179{fill:url(#SVGID_152_);}
	.st180{fill:#EEEEEE;stroke:#000000;stroke-width:0.6792;stroke-miterlimit:10;}
	.st181{fill:none;stroke:#FF0013;stroke-width:2.0518;stroke-miterlimit:10;}
	.st182{fill:#11FF00;}
	.st183{fill:none;stroke:#FFFFFF;stroke-miterlimit:10;}
</style>
<g>
	<g>
		<g>
			<path class="st4" d="M413.11,403.09c-0.07,6.79-2.23,9.12-8.68,9.25c-10.75,0.27-21.96,0.27-34.27,0
				c-3.16-0.03-5.59-0.9-7.05-2.5c-1.2-1.26-1.73-2.99-1.63-5.12c0.17-3.03,1.33-6.52,9.05-6.62c3.29-0.03,6.62-0.07,9.98-0.07
				c2.53,0,5.09,0,7.69,0.03h10.61l-0.03-10.68c0-5.96,0-11.65,0.03-17.3c0.03-4.26,1.26-9.38,6.95-9.58c2-0.1,3.56,0.5,4.76,1.63
				c1.7,1.63,2.6,4.39,2.6,7.99C413.17,379.2,413.21,391.18,413.11,403.09z"/>
		</g>
		<g>
			<path class="st4" d="M138.44,94.78c-0.07,5.59-4.03,6.85-7.32,6.92c-6.16,0.13-12.28,0.1-18.77,0.07h-11.15v2.5
				c0,2.93,0,5.82,0.03,8.62c0.03,6.29,0.07,12.21-0.1,18.13c-0.1,3.09-1.26,5.69-3.19,7.09c-1.6,1.2-3.59,1.5-5.72,0.9
				c-3.63-1.03-5.32-3.36-5.32-7.29l-0.03-6.29c0-10.08,0-20.16,0.03-30.21c0-4.86,2.3-7.35,6.72-7.49
				c6.09-0.17,12.41-0.27,19.13-0.27c5.89,0,12.08,0.07,18.63,0.2C136.01,87.76,138.51,90.29,138.44,94.78z"/>
		</g>
		<g>
			<path class="st4" d="M138.57,405.05c0.07,4.49-3.39,7.22-9.25,7.32c-12.84,0.2-23.56,0.2-33.67-0.03
				c-6.55-0.13-8.68-2.36-8.75-9.15c-0.1-10.61-0.1-21.63,0-33.74c0-3.26,0.93-8.75,6.79-8.95h0.3c1.83,0,3.36,0.57,4.56,1.73
				c1.63,1.53,2.6,4.13,2.63,7.25c0.13,5.82,0.1,11.65,0.07,17.73c0,2.73-0.03,5.49-0.03,8.35v2.5h10.55
				c5.96-0.03,11.65-0.03,17.37,0.03C132.62,398.13,138.51,399.06,138.57,405.05z"/>
		</g>
		<g>
			<path class="st4" d="M413.07,131.62c-0.03,2.4-0.87,4.49-2.33,5.89c-1.3,1.26-2.99,1.93-4.92,1.83c-4.16-0.1-6.89-3.29-6.99-8.12
				c-0.13-5.99-0.1-12.01-0.07-18.3c0-2.8,0.03-5.66,0.03-8.58v-2.5h-24.36c-2.03,0.03-3.89,0.07-5.79-0.1
				c-6.39-0.5-7.12-4.29-7.12-7.12c-0.03-4.33,2.3-6.75,6.49-6.89c12.91-0.33,25.82-0.33,38.36,0c5.49,0.17,6.69,4.19,6.69,7.52
				C413.17,106.83,413.24,119.24,413.07,131.62z"/>
		</g>
		<g>
			<g>
				<path class="st4" d="M352.28,149.35c-27.68-27.78-64.42-43.09-103.48-43.12h-0.1c-39.03,0-75.76,15.24-103.44,42.89
					c-27.72,27.72-42.99,64.52-42.99,103.64c0.03,39.13,15.27,75.9,42.99,103.54c27.65,27.62,64.42,42.79,103.51,42.79h0.17
					c80.52-0.07,146.1-65.61,146.23-146.07C395.21,213.93,380,177.1,352.28,149.35z M248.67,384.75h-0.1
					c-35.27-0.03-68.41-13.81-93.33-38.8c-24.99-25.05-38.7-58.36-38.6-93.73c0.17-72.6,59.43-131.66,132.09-131.66h0.1
					c35.24,0.03,68.41,13.84,93.36,38.9c24.99,25.05,38.7,58.33,38.6,93.66C380.63,325.73,321.34,384.75,248.67,384.75z"/>
			</g>
			<g>
				<path class="st4" d="M362.2,252.53c-0.07-4.09-0.8-6.29-15.51-7.42l-1.93-0.17l-0.33-1.9c-8.78-48.68-37.76-77.63-86.11-86.08
					l-1.96-0.33l-0.1-1.96c-0.97-14.67-3.36-15.44-7.45-15.47h-0.33c-4.06,0-5.79,0.93-7.45,15.64l-0.23,1.83l-1.83,0.33
					c-48.51,8.68-77.46,37.6-85.94,85.94l-0.3,1.86l-1.9,0.2c-15.01,1.46-15.6,3.39-15.51,7.22c0.2,7.02,3.49,7.42,10.25,7.65
					c1.8,0.03,3.69,0.1,5.42,0.4l1.73,0.33l0.3,1.7c8.72,48.61,37.7,77.59,86.14,86.14l1.93,0.33l0.13,1.96
					c0.93,14.64,3.29,15.37,7.39,15.41c4.36,0,6.16-0.5,7.82-15.57l0.2-1.83l1.86-0.33c48.41-8.58,77.33-37.53,85.94-86.01l0.3-1.86
					l1.9-0.17C361.73,258.78,362.3,256.92,362.2,252.53z M326.06,260.35l2.13,0.2l0.1,2.16c1.5,31.48-33.27,66.85-68.94,70.11
					l-2.26,0.23l-0.4-2.26c-2.5-14.31-4.59-14.91-8.25-14.74c-3.69,0.17-6.19,1.23-7.29,13.97l-0.2,2.16l-2.16,0.1
					c-0.63,0.03-1.26,0.07-1.9,0.07c-31.04,0-65.75-35.04-68.28-69.54l-0.17-2.53l2.5-0.17c0.9-0.03,1.76-0.07,2.66-0.1
					c7.45-0.23,11.35-0.7,11.65-7.72c0.17-3.29-0.8-6.09-13.77-7.19l-2.16-0.2l-0.13-2.16c-1.83-31.54,33.84-67.61,69.37-70.17
					l2.53-0.17l0.13,2.53c0.07,0.83,0.1,1.66,0.13,2.53c0.27,7.52,0.77,11.45,7.85,11.78c3.29,0.13,5.96-0.77,7.12-13.84l0.17-2.13
					l2.16-0.13c31.34-1.66,67.41,33.87,70.17,69.24l0.2,2.5l-2.5,0.2c-13.21,1.1-14.34,3.76-14.44,7.42
					C311.96,256.12,312.89,259.05,326.06,260.35z"/>
			</g>
			<g>
				<path class="st4" d="M248.77,207.94h-0.1c-24.99,0-44.65,19.53-44.75,44.52c-0.07,25.02,19.4,44.82,44.39,45.05
					c12.18,0.27,23.52-4.46,32.04-12.91c8.52-8.45,13.18-19.83,13.14-31.98C293.42,227.61,273.79,207.98,248.77,207.94z
					 M279.12,252.63c0,16.97-13.21,30.34-30.15,30.51h-0.3c-8.15,0-15.74-3.06-21.39-8.65c-5.72-5.66-8.92-13.28-8.95-21.53
					c-0.1-17.07,13.11-30.51,30.11-30.64h0.27c8.22,0,15.84,3.06,21.53,8.65c5.69,5.62,8.82,13.24,8.88,21.46V252.63z"/>
			</g>
		</g>
	</g>
</g>
</svg>
