<?xml version="1.0" encoding="utf-8"?>
<!-- Generator: Adobe Illustrator 24.1.3, SVG Export Plug-In . SVG Version: 6.00 Build 0)  -->
<svg version="1.1" id="Layer_1" xmlns="http://www.w3.org/2000/svg" xmlns:xlink="http://www.w3.org/1999/xlink" x="0px" y="0px"
	 viewBox="0 0 512 512" style="enable-background:new 0 0 512 512;" xml:space="preserve">
<style type="text/css">
	.st0{fill:#71B2FF;}
</style>
<g>
	<path class="st0" d="M268.9,69.3c11.1,1.9,22.4,3.3,33.4,5.9c69.8,16.9,126,77.8,137.5,148.6c14.9,91.7-35.8,177.7-123,208.5
		c-100.1,35.4-212.4-23.5-240.4-125.9C50.7,212,99.4,116,191,81.1c15.6-5.9,31.7-9.6,48.4-10.9c1.3-0.1,2.5-0.5,3.8-0.8
		C251.8,69.3,260.4,69.3,268.9,69.3z M256.1,155.6c-55.2,0-100.1,44.8-100.3,100.2c-0.2,55.1,44.6,100.2,100,100.4
		c55.5,0.2,100.7-44.9,100.6-100.3C356.3,200.6,311.3,155.6,256.1,155.6z M256.2,130.7c10.2-0.1,18-8.1,17.9-18.2
		c-0.1-10.1-8.3-17.9-18.4-17.8c-9.9,0.2-17.7,8-17.6,18C238,122.8,246.1,130.8,256.2,130.7z"/>
	<path class="st0" d="M256,191.8c35.3,0,64.2,28.7,64.2,64c0.1,35.4-29,64.5-64.4,64.4c-35.2-0.1-64-29.1-64-64.3
		C191.9,220.6,220.7,191.8,256,191.8z"/>
</g>
</svg>
