<?xml version="1.0" encoding="utf-8"?>
<!-- Generator: Adobe Illustrator 24.1.3, SVG Export Plug-In . SVG Version: 6.00 Build 0)  -->
<svg version="1.1" id="Layer_1" xmlns="http://www.w3.org/2000/svg" xmlns:xlink="http://www.w3.org/1999/xlink" x="0px" y="0px"
	 viewBox="0 0 500 500" style="enable-background:new 0 0 500 500;" xml:space="preserve">
<style type="text/css">
	.st0{fill:#EEEEEE;}
	.st1{fill:#0F044C;}
	.st2{display:none;opacity:0.29;}
	.st3{display:inline;fill:#F15A24;}
	.st4{fill:#141E61;}
	.st5{opacity:0.05;}
	.st6{fill:none;stroke:#141E61;stroke-width:0.6718;stroke-miterlimit:10;}
	.st7{clip-path:url(#SVGID_2_);}
	.st8{opacity:0.1;fill:url(#SVGID_3_);}
	.st9{opacity:0.15;fill:url(#SVGID_4_);}
	.st10{opacity:0.1;fill:url(#SVGID_5_);}
	.st11{fill:#4FDFFF;}
	.st12{fill:none;stroke:#4FDFFF;stroke-width:1.5501;stroke-miterlimit:10;}
	.st13{fill:none;stroke:#4FDFFF;stroke-width:1.7923;stroke-miterlimit:10;}
	.st14{fill:none;stroke:#4FDFFF;stroke-width:2.5835;stroke-miterlimit:10;}
	.st15{fill:none;stroke:#4FDFFF;stroke-width:1.7761;stroke-miterlimit:10;}
	.st16{fill:url(#SVGID_6_);}
	.st17{opacity:0;fill:url(#SVGID_7_);}
	.st18{fill:url(#SVGID_8_);}
	.st19{opacity:0;fill:url(#SVGID_9_);}
	.st20{fill:url(#SVGID_10_);}
	.st21{opacity:0;fill:url(#SVGID_11_);}
	.st22{fill:url(#SVGID_12_);}
	.st23{opacity:0;fill:url(#SVGID_13_);}
	.st24{fill:url(#SVGID_14_);}
	.st25{opacity:0;fill:url(#SVGID_15_);}
	.st26{fill:url(#SVGID_16_);}
	.st27{opacity:0;fill:url(#SVGID_17_);}
	.st28{fill:url(#SVGID_18_);}
	.st29{opacity:0;fill:url(#SVGID_19_);}
	.st30{fill:url(#SVGID_20_);}
	.st31{opacity:0;fill:url(#SVGID_21_);}
	.st32{fill:url(#SVGID_22_);}
	.st33{opacity:0;fill:url(#SVGID_23_);}
	.st34{fill:url(#SVGID_24_);}
	.st35{opacity:0;fill:url(#SVGID_25_);}
	.st36{fill:url(#SVGID_26_);}
	.st37{opacity:0.6;fill:url(#SVGID_27_);}
	.st38{opacity:0.7;fill:url(#SVGID_28_);}
	.st39{fill:url(#SVGID_29_);}
	.st40{opacity:0.6;fill:url(#SVGID_30_);}
	.st41{opacity:0.7;fill:url(#SVGID_31_);}
	.st42{fill:url(#SVGID_32_);}
	.st43{opacity:0.6;fill:url(#SVGID_33_);}
	.st44{opacity:0.7;fill:url(#SVGID_34_);}
	.st45{fill:url(#SVGID_35_);}
	.st46{opacity:0;fill:url(#SVGID_36_);}
	.st47{fill:url(#SVGID_37_);}
	.st48{opacity:0;fill:url(#SVGID_38_);}
	.st49{clip-path:url(#SVGID_40_);}
	.st50{fill:url(#SVGID_41_);}
	.st51{fill:url(#SVGID_42_);}
	.st52{fill:url(#SVGID_43_);}
	.st53{fill:url(#SVGID_44_);}
	.st54{fill:url(#SVGID_45_);}
	.st55{fill:url(#SVGID_46_);}
	.st56{fill:url(#SVGID_47_);}
	.st57{fill:url(#SVGID_48_);}
	.st58{fill:url(#SVGID_49_);}
	.st59{fill:url(#SVGID_50_);}
	.st60{fill:url(#SVGID_51_);}
	.st61{fill:url(#SVGID_52_);}
	.st62{fill:url(#SVGID_53_);}
	.st63{fill:url(#SVGID_54_);}
	.st64{fill:url(#SVGID_55_);}
	.st65{fill:url(#SVGID_56_);}
	.st66{fill:url(#SVGID_57_);}
	.st67{fill:url(#SVGID_58_);}
	.st68{fill:url(#SVGID_59_);}
	.st69{fill:url(#SVGID_60_);}
	.st70{fill:url(#SVGID_61_);}
	.st71{fill:url(#SVGID_62_);}
	.st72{fill:url(#SVGID_63_);}
	.st73{fill:url(#SVGID_64_);}
	.st74{fill:url(#SVGID_65_);}
	.st75{fill:url(#SVGID_66_);}
	.st76{fill:url(#SVGID_67_);}
	.st77{fill:url(#SVGID_68_);}
	.st78{fill:url(#SVGID_69_);}
	.st79{fill:url(#SVGID_70_);}
	.st80{fill:url(#SVGID_71_);}
	.st81{fill:url(#SVGID_72_);}
	.st82{fill:url(#SVGID_73_);}
	.st83{fill:url(#SVGID_74_);}
	.st84{fill:url(#SVGID_75_);}
	.st85{fill:url(#SVGID_76_);}
	.st86{fill:url(#SVGID_77_);}
	.st87{fill:url(#SVGID_78_);}
	.st88{fill:url(#SVGID_79_);}
	.st89{fill:url(#SVGID_80_);}
	.st90{fill:url(#SVGID_81_);}
	.st91{fill:url(#SVGID_82_);}
	.st92{fill:url(#SVGID_83_);}
	.st93{clip-path:url(#SVGID_85_);}
	.st94{fill:url(#SVGID_86_);}
	.st95{fill:url(#SVGID_87_);}
	.st96{fill:url(#SVGID_88_);}
	.st97{fill:url(#SVGID_89_);}
	.st98{fill:url(#SVGID_90_);}
	.st99{fill:url(#SVGID_91_);}
	.st100{fill:url(#SVGID_92_);}
	.st101{fill:url(#SVGID_93_);}
	.st102{fill:url(#SVGID_94_);}
	.st103{fill:url(#SVGID_95_);}
	.st104{fill:url(#SVGID_96_);}
	.st105{fill:url(#SVGID_97_);}
	.st106{fill:url(#SVGID_98_);}
	.st107{fill:url(#SVGID_99_);}
	.st108{fill:url(#SVGID_100_);}
	.st109{fill:url(#SVGID_101_);}
	.st110{fill:url(#SVGID_102_);}
	.st111{fill:url(#SVGID_103_);}
	.st112{fill:url(#SVGID_104_);}
	.st113{fill:url(#SVGID_105_);}
	.st114{fill:url(#SVGID_106_);}
	.st115{fill:url(#SVGID_107_);}
	.st116{fill:url(#SVGID_108_);}
	.st117{fill:url(#SVGID_109_);}
	.st118{fill:url(#SVGID_110_);}
	.st119{fill:url(#SVGID_111_);}
	.st120{fill:url(#SVGID_112_);}
	.st121{fill:url(#SVGID_113_);}
	.st122{fill:url(#SVGID_114_);}
	.st123{fill:url(#SVGID_115_);}
	.st124{fill:url(#SVGID_116_);}
	.st125{fill:url(#SVGID_117_);}
	.st126{fill:url(#SVGID_118_);}
	.st127{fill:url(#SVGID_119_);}
	.st128{fill:url(#SVGID_120_);}
	.st129{fill:url(#SVGID_121_);}
	.st130{fill:url(#SVGID_122_);}
	.st131{fill:url(#SVGID_123_);}
	.st132{fill:url(#SVGID_124_);}
	.st133{fill:url(#SVGID_125_);}
	.st134{fill:url(#SVGID_126_);}
	.st135{fill:url(#SVGID_127_);}
	.st136{fill:#FFFFFF;}
	.st137{fill:none;stroke:#141E61;stroke-width:1.4606;stroke-miterlimit:10;}
	.st138{fill:none;stroke:#141E61;stroke-width:0.5;stroke-miterlimit:10;}
	.st139{fill:url(#SVGID_132_);}
	.st140{fill:none;stroke:#FFFFFF;stroke-width:0.5;stroke-miterlimit:10;}
	.st141{fill:none;}
	.st142{opacity:0.2;}
	.st143{fill:#93867E;}
	.st144{opacity:0.45;fill:#93867E;}
	.st145{fill:#CBC7C3;}
	.st146{opacity:0.65;fill:#3399CC;}
	.st147{fill:#AFA9A3;}
	.st148{opacity:0.55;fill:#CBC7C3;}
	.st149{fill:#C4C1BE;}
	.st150{opacity:0.53;fill:#B2AEAA;}
	.st151{fill:#9C938C;}
	.st152{opacity:0.35;fill:#968D85;}
	.st153{fill:#524843;}
	.st154{opacity:0.45;}
	.st155{fill:#999999;}
	.st156{fill:#7A726E;}
	.st157{fill:#D7D4D1;}
	.st158{fill:#BEB9B3;}
	.st159{opacity:0.75;fill:#3399CC;}
	.st160{opacity:0.45;fill:#BCBCB0;}
	.st161{opacity:0.35;fill:#AAAAA6;}
	.st162{fill:none;stroke:#FF0000;stroke-width:1.0495;stroke-linecap:round;stroke-linejoin:round;stroke-miterlimit:10;}
	.st163{fill:none;stroke:#FF0000;stroke-width:0.6013;stroke-miterlimit:10;}
	.st164{fill:none;stroke:#EEEEEE;stroke-miterlimit:10;}
	.st165{fill:#FFFFFF;stroke:#141E61;stroke-width:1.0914;stroke-miterlimit:10;}
	.st166{fill:none;stroke:#141E61;stroke-width:1.4249;stroke-miterlimit:10;}
	.st167{fill:#FFFFFF;stroke:#141E61;stroke-width:0.93;stroke-miterlimit:10;}
	.st168{fill:none;stroke:#EEEEEE;stroke-width:1.9099;stroke-miterlimit:10;}
	.st169{fill:#EEEEEE;stroke:#0F044C;stroke-width:0.7826;stroke-miterlimit:10;}
	.st170{fill:none;stroke:#ED1C24;stroke-width:0.9063;stroke-miterlimit:10;}
	.st171{clip-path:url(#SVGID_146_);fill:none;stroke:#ED1C24;stroke-width:0.9063;stroke-miterlimit:10;}
	.st172{fill:url(#SVGID_147_);}
	.st173{fill:none;stroke:#00FF00;stroke-width:0.9063;stroke-miterlimit:10;}
	.st174{fill:#EEEEEE;stroke:#000000;stroke-width:0.3;stroke-miterlimit:10;}
	.st175{fill:#FF0013;}
	.st176{opacity:0.9;fill:#141E61;}
	.st177{fill:none;stroke:#ED1C24;stroke-width:2.0518;stroke-miterlimit:10;}
	.st178{clip-path:url(#SVGID_151_);fill:none;stroke:#ED1C24;stroke-width:2.0518;stroke-miterlimit:10;}
	.st179{fill:url(#SVGID_152_);}
	.st180{fill:#EEEEEE;stroke:#000000;stroke-width:0.6792;stroke-miterlimit:10;}
	.st181{fill:none;stroke:#FF0013;stroke-width:2.0518;stroke-miterlimit:10;}
	.st182{fill:#11FF00;}
	.st183{fill:none;stroke:#FFFFFF;stroke-miterlimit:10;}
</style>
<g>
	<g>
		<g>
			<path class="st4" d="M411.8,401.86c-0.07,6.73-2.21,9.04-8.62,9.18c-10.66,0.26-21.78,0.26-34,0c-3.14-0.03-5.54-0.89-7-2.48
				c-1.19-1.25-1.72-2.97-1.62-5.08c0.17-3,1.32-6.47,8.98-6.57c3.27-0.03,6.57-0.07,9.9-0.07c2.51,0,5.05,0,7.62,0.03h10.53
				l-0.03-10.6c0-5.91,0-11.55,0.03-17.16c0.03-4.22,1.25-9.31,6.9-9.51c1.98-0.1,3.53,0.5,4.72,1.62c1.68,1.62,2.57,4.36,2.57,7.92
				C411.87,378.16,411.9,390.05,411.8,401.86z"/>
		</g>
		<g>
			<path class="st4" d="M139.33,96.02c-0.07,5.55-3.99,6.8-7.26,6.87c-6.11,0.13-12.18,0.1-18.62,0.07H102.4v2.48
				c0,2.9,0,5.78,0.03,8.55c0.03,6.24,0.07,12.11-0.1,17.99c-0.1,3.07-1.25,5.64-3.17,7.03c-1.58,1.19-3.56,1.49-5.68,0.89
				c-3.6-1.02-5.28-3.33-5.28-7.23l-0.03-6.24c0-10,0-20,0.03-29.97c0-4.82,2.28-7.29,6.67-7.43c6.04-0.16,12.31-0.26,18.98-0.26
				c5.84,0,11.98,0.07,18.48,0.2C136.92,89.06,139.4,91.57,139.33,96.02z"/>
		</g>
		<g>
			<path class="st4" d="M139.46,403.81c0.07,4.46-3.37,7.16-9.18,7.26c-12.74,0.2-23.37,0.2-33.4-0.03
				c-6.5-0.13-8.61-2.34-8.68-9.08c-0.1-10.53-0.1-21.45,0-33.47c0-3.23,0.92-8.68,6.73-8.88h0.3c1.82,0,3.33,0.56,4.52,1.72
				c1.62,1.52,2.57,4.09,2.61,7.2c0.13,5.78,0.1,11.55,0.07,17.59c0,2.71-0.03,5.45-0.03,8.28v2.48h10.46
				c5.91-0.03,11.55-0.03,17.23,0.03C133.56,396.95,139.4,397.87,139.46,403.81z"/>
		</g>
		<g>
			<path class="st4" d="M411.77,132.56c-0.03,2.38-0.86,4.46-2.31,5.84c-1.29,1.25-2.97,1.91-4.88,1.82
				c-4.13-0.1-6.83-3.27-6.93-8.05c-0.13-5.94-0.1-11.92-0.07-18.15c0-2.77,0.03-5.61,0.03-8.52v-2.48h-24.16
				c-2.01,0.03-3.86,0.07-5.74-0.1c-6.34-0.49-7.06-4.26-7.06-7.06c-0.03-4.29,2.28-6.7,6.44-6.83c12.81-0.33,25.61-0.33,38.06,0
				c5.45,0.16,6.63,4.16,6.63,7.46C411.87,107.97,411.93,120.28,411.77,132.56z"/>
		</g>
		<g>
			<g>
				<path class="st4" d="M351.12,239.73c0.03,16.6,0.07,33.8-3.37,49.74c-10.63,49.64-41.42,82.52-91.5,97.7
					c-3.89,1.16-8.88,1.22-13.04,0.16c-54.1-13.9-95.29-66.44-95.82-122.22c-0.23-24.13-0.16-48.68-0.1-72.42l0.03-20.6
					c0-8.09,2.67-10.66,11.32-10.96c2.28-0.07,4.59-0.13,6.86-0.17c7.53-0.13,15.32-0.26,22.87-1.68
					c22.12-4.16,39.41-16.57,51.46-36.84c3.07-5.22,6.44-8.12,9.41-8.12c0,0,0,0,0.03,0c2.97,0,6.34,2.87,9.51,8.05
					c15.05,24.66,37.69,37.69,67.23,38.75c2.71,0.1,5.41,0.1,8.12,0.07c2.67-0.03,5.35-0.07,7.99,0.07c5.31,0.2,9.18,3.96,9.04,8.75
					c-0.1,4.26-3.53,7.1-8.94,7.39c-40.04,2.08-68.59-9.24-89.84-35.55l-2.74-3.37l-2.84,3.3c-20.7,24.03-46.31,35.75-78.29,35.75
					h-0.79l-3.37-0.03l-0.26,3.37c-0.07,0.73-0.13,1.39-0.2,2.08c-0.16,1.55-0.3,3.1-0.3,4.62l-0.03,18.38
					c-0.03,18.71-0.07,38.06,0.07,57.1c0.33,48.42,32.81,92.45,78.95,107.07c4.06,1.29,9.21,1.29,13.4,0
					c44.92-13.7,78.16-57.79,79.05-104.86c0.17-9.61,0.13-19.37,0.13-28.85c-0.03-5.78-0.07-11.55-0.03-17.36
					c0.03-4.79,1.55-10.5,8.61-10.6c2.24-0.03,3.99,0.59,5.25,1.85c1.65,1.68,2.48,4.59,2.34,8.38
					C351.12,225.7,351.12,232.83,351.12,239.73z"/>
			</g>
			<g>
				<path class="st4" d="M292.57,239.34c0,2.61-2.05,6.01-6.11,10.07l-13.86,13.86c-8.81,8.85-17.66,17.72-26.54,26.54
					c-6.73,6.7-10,6.77-16.67,0.17l-2.48-2.44c-5.68-5.61-11.52-11.39-17.13-17.2c-2.21-2.31-3.43-4.79-3.56-7.2
					c-0.1-2.18,0.76-4.19,2.51-5.88c1.45-1.39,3.14-2.08,4.95-2.08c2.44,0,5.05,1.25,7.53,3.66c3,2.97,5.91,6.11,8.94,9.44
					c1.42,1.55,2.87,3.14,4.39,4.79l2.57,2.74l12.91-12.94c8.45-8.48,16.57-16.64,24.69-24.75c9.51-9.54,12.94-6.21,14.95-4.19
					C291.61,235.84,292.54,237.59,292.57,239.34z"/>
			</g>
		</g>
	</g>
</g>
</svg>
